<svg width="37" height="41" viewBox="0 0 37 41" fill="none" xmlns="http://www.w3.org/2000/svg">
<path d="M30.1667 14.8258C30.1667 11.3452 28.9375 8.00708 26.7496 5.54589C24.5617 3.08471 21.5942 1.70203 18.5 1.70203C15.4058 1.70203 12.4383 3.08471 10.2504 5.54589C8.0625 8.00708 6.83333 11.3452 6.83333 14.8258C6.83333 30.1369 1 34.5115 1 34.5115H36C36 34.5115 30.1667 30.1369 30.1667 14.8258Z" stroke="black" stroke-width="2" stroke-linecap="round" stroke-linejoin="round"/>
<path d="M22.8362 37.7924C22.4943 38.4553 22.0037 39.0056 21.4133 39.3881C20.8229 39.7706 20.1536 39.972 19.4723 39.972C18.791 39.972 18.1217 39.7706 17.5313 39.3881C16.9409 39.0056 16.4503 38.4553 16.1084 37.7924" stroke="black" stroke-width="2" stroke-linecap="round" stroke-linejoin="round"/>
</svg>
